<?xml version="1.0" encoding="UTF-8" standalone="no"?>
<svg
   xmlns:dc="http://purl.org/dc/elements/1.1/"
   xmlns:cc="http://creativecommons.org/ns#"
   xmlns:rdf="http://www.w3.org/1999/02/22-rdf-syntax-ns#"
   xmlns:svg="http://www.w3.org/2000/svg"
   xmlns="http://www.w3.org/2000/svg"
   xmlns:sodipodi="http://sodipodi.sourceforge.net/DTD/sodipodi-0.dtd"
   xmlns:inkscape="http://www.inkscape.org/namespaces/inkscape"
   width="190mm"
   height="190mm"
   viewBox="0 0 190 190"
   version="1.1"
   id="svg8"
   sodipodi:docname="logo.svg"
   inkscape:version="1.0.2 (e86c8708, 2021-01-15)">
  <defs
     id="defs2" />
  <sodipodi:namedview
     id="base"
     pagecolor="#ffffff"
     bordercolor="#666666"
     borderopacity="1.0"
     inkscape:pageopacity="0.0"
     inkscape:pageshadow="2"
     inkscape:zoom="0.720553"
     inkscape:cx="584.50334"
     inkscape:cy="239.37552"
     inkscape:document-units="mm"
     inkscape:current-layer="layer1"
     inkscape:document-rotation="0"
     showgrid="false"
     inkscape:window-width="1252"
     inkscape:window-height="912"
     inkscape:window-x="373"
     inkscape:window-y="25"
     inkscape:window-maximized="0" />
  <metadata
     id="metadata5">
    <rdf:RDF>
      <cc:Work
         rdf:about="">
        <dc:format>image/svg+xml</dc:format>
        <dc:type
           rdf:resource="http://purl.org/dc/dcmitype/StillImage" />
        <dc:title></dc:title>
      </cc:Work>
    </rdf:RDF>
  </metadata>
  <g
     inkscape:label="Layer 1"
     inkscape:groupmode="layer"
     id="layer1">
    <path
       style="fill:#ffb380;stroke:#000000;stroke-width:0.201041px;stroke-linecap:butt;stroke-linejoin:miter;stroke-opacity:1"
       d="m 53.288764,44.037976 c 0.120885,0.975226 1.773523,1.199905 2.353718,1.852119 1.706794,1.918655 2.714429,4.244878 4.119009,6.350121 0.590937,0.885716 1.444951,1.552291 2.059504,2.381297 0.414303,0.55887 0.486795,1.282532 0.882645,1.852118 0.781022,1.123798 1.698066,2.260382 2.353721,3.439648 0.277388,0.498913 0.331763,1.079727 0.588428,1.58753 0.743391,1.470772 1.709745,2.689071 2.353721,4.233415 1.448161,3.472901 1.309423,6.985938 2.059504,10.583541 0.541772,2.598494 0.882644,5.028577 0.882644,7.673064 0,0.617374 0,1.234749 0,1.852123 0,0.264585 0.208042,0.606667 0,0.793762 -0.06935,0.0624 -0.224867,-0.0624 -0.294215,0 -0.138693,0.12473 0.02774,0.354555 0,0.529177 -0.08437,0.531087 -0.294214,1.051055 -0.294214,1.587532 0,0.197211 0.258163,0.334645 0.294214,0.529174 0.217367,1.172867 0.26418,4.103881 0,5.291764 -0.08602,0.386764 -0.43443,0.689042 -0.588429,1.058359 -0.499882,1.19878 -1.180162,3.44262 -2.059504,4.23341 -0.06935,0.0624 -0.250356,-0.0789 -0.294217,0 -0.08772,0.15777 0.08772,0.37141 0,0.52918 -0.04386,0.0789 -0.243756,-0.0756 -0.294214,0 -0.338479,0.50732 -0.588429,1.05835 -0.882645,1.58753 -0.28357,0.51003 -0.285189,1.27262 -0.588428,1.85212 -0.616559,1.17825 -1.37809,2.29065 -2.059504,3.43965 -0.103199,0.17401 -0.294217,0.33196 -0.294217,0.52917 0,0.33115 0.389795,-1.90929 2.059504,-1.58753 2.31423,0.44597 4.4734,1.24377 6.766944,1.58753 1.881813,0.28206 -0.220817,0.32411 2.059504,0.52918 2.682685,0.24126 3.37847,-0.10035 6.178513,0.52917 0.361192,0.0812 0.713662,-0.84559 0.88264,-1.05835 1.736482,-2.18626 2.809928,-6.13905 3.530583,-8.73142 1.022537,-3.67827 1.055634,-3.742802 2.353722,-8.996001 0.355951,-1.440511 0.793102,-2.760928 0.588427,-4.233407 C 87.622033,83.079629 86.644811,80.401729 86.240834,77.640704 85.966729,73.450075 86.157554,74.243397 85.6524,71.290579 85.282557,69.12862 84.44564,67.075155 83.887112,64.940462 83.635974,63.980609 83.705899,62.945523 83.298686,62.029987 83.116577,61.620547 82.654179,61.35712 82.416038,60.971634 81.542921,59.558275 80.8151,57.993639 79.76811,56.738219 78.440493,55.146317 76.631713,53.880584 75.354881,52.240216 74.303532,50.88953 73.17194,49.244278 72.412733,47.742214 71.84869,46.626272 71.393682,44.444482 70.353229,43.508799 69.25976,42.525439 67.624878,41.584362 66.528434,40.598326 65.62493,39.785803 64.467702,37.422988 63.29207,37.158677 c -2.065327,-0.464339 -3.343205,1.106395 -5.001653,1.852119 -0.277388,0.124728 -0.634539,0.09725 -0.882645,0.264587 -0.175436,0.118329 -0.153825,0.377674 -0.294214,0.529178 -1.480512,1.597714 -2.58601,2.376677 -3.824794,4.233415 z"
       id="path48" />
    <path
       style="fill:#00ff00;stroke:#000000;stroke-width:0.178648px;stroke-linecap:butt;stroke-linejoin:miter;stroke-opacity:1"
       d="m 53.288764,44.037976 c -4.069744,2.568547 -3.548089,5.682759 -2.924379,9.479949 0.05013,0.305191 -0.06952,0.622567 0,0.924872 0.06267,0.272492 0.430666,0.430023 0.531707,0.693655 0.25899,0.675749 0.221944,1.079715 0.531703,1.618528 0.118895,0.206806 0,0.462435 0,0.693655 0,0.07707 0.08861,0.231217 0,0.231217 -0.624382,0 -1.952612,-1.004578 -2.392671,-1.38731 -0.06266,-0.0545 0.07926,-0.196751 0,-0.231217 -0.253428,-0.110207 -1.915096,-0.554509 -2.126821,-0.462438 -0.677243,0.294508 -1.158448,1.486716 -1.329263,2.080965 -0.549092,1.910227 -0.71272,3.458411 0,5.318019 0.332711,0.868097 1.381394,1.382789 1.595114,2.312183 0.181481,0.789187 -3.182519,-1.037129 -3.456082,-1.156092 -0.285783,-0.124276 -0.571627,-0.658935 -0.797558,-0.462436 -0.202864,0.176434 0.26471,1.153771 0.265853,1.156091 0.507969,1.03085 1.417615,1.746368 1.860968,2.774619 0.282822,0.655939 0.342051,1.255498 0.797557,1.849747 0.279436,0.364545 0.850541,0.785813 1.063411,1.156088 0.111321,0.193636 -2.14726,0.251554 -2.924379,-0.231215 -1.452498,-0.902343 -2.484953,-2.161226 -3.721935,-3.237057 -0.401234,-0.348961 -0.980896,-0.535322 -1.329264,-0.924873 -0.738689,-0.826014 -1.428174,-2.895583 -1.860967,-3.93071 -0.393699,-0.941623 -1.049855,-1.802589 -1.329262,-2.774619 -0.569522,-1.981305 -0.459011,-4.478054 0,-6.47411 0.475863,-2.06935 6.355253,-6.501133 8.241428,-8.323857 0.17433,-0.168465 2.356452,-2.766429 1.860968,-3.005837 -0.77852,-0.376164 -1.768394,-0.206243 -2.658525,-0.231218 -5.385977,-0.151106 -8.454669,-0.04902 -12.229219,3.468274 -1.1272,1.050378 -0.187166,1.032178 -0.531704,2.080964 -0.305043,0.928561 -1.144151,1.660916 -1.595116,2.5434 -0.07062,0.138183 0.162526,0.462437 -0.265852,0.462437 -0.07437,0 0.26563,-1.618721 0,-1.849745 -1.425017,-1.239372 -5.220874,-0.777304 -6.646315,0.462435 -0.809822,0.704321 -0.788282,2.158932 -1.329262,3.005837 -1.035344,1.200618 -0.599403,0.580194 -1.329263,1.849748 -0.125324,0.217993 -0.0152,0.80265 -0.265853,0.693653 -0.923337,-0.401524 -0.675721,-3.837328 -1.595116,-3.468273 -1.310388,0.526003 -4.525494,2.285859 -5.582904,3.468273 -0.292985,0.32762 -0.337887,0.776814 -0.531705,1.156091 -0.702347,1.374408 -0.489826,0.475116 -0.797558,2.080966 -0.01457,0.07602 0.0203,0.306241 0,0.231217 -1.5811134,-5.84431 -3.7916914,-9.273338 0.265853,-14.566749 0.840422,-1.096403 2.189542,-0.680086 3.456084,-0.924873 0.82068,-0.158615 1.599172,-0.452111 2.392673,-0.693655 4.014077,-1.221897 8.196177,-1.666945 12.229218,-2.774618 1.632046,-0.44824 3.161686,-1.147816 4.785346,-1.618529 2.853471,-0.827241 6.208735,-0.462435 9.038986,-0.462435 0.886177,0 1.774961,-0.05911 2.658527,0 0.279408,0.01869 0.922882,0.449212 0.797557,0.231218 -1.935441,-3.366599 -10.465538,-4.314188 -14.356039,-3.468273 -1.338893,0.291116 -2.55635,0.753725 -3.721935,1.38731 -0.270947,0.14728 -0.511774,0.33816 -0.797558,0.462435 -0.07926,0.03447 -0.265852,-0.07707 -0.265852,0 0,0.07708 0.189306,0.03884 0.265852,0 0.998038,-0.506342 1.989941,-1.027469 2.924378,-1.618527 0.07167,-0.04533 0.08861,-0.231218 0,-0.231218 -0.125323,0 -0.141494,0.217698 -0.265852,0.231218 -1.231065,0.133835 -2.48129,0 -3.721936,0 -2.313183,0 -4.941718,-0.64832 -7.178019,0 -1.141733,0.330998 -2.174133,1.618527 -3.456083,1.618527 -0.125324,0 0.168857,-0.162196 0.265852,-0.231218 0.878333,-0.625013 1.780194,-1.224731 2.658526,-1.849747 0.097,-0.06902 0.35447,-0.154143 0.265853,-0.231217 -0.08861,-0.07707 -0.140962,0.222166 -0.265853,0.231217 -0.971425,0.07041 -1.949585,0 -2.924378,0 -1.023031,0 -3.031117,0.02321 -3.98779,0.23122 -0.693125,0.150706 -1.221938,0.646982 -1.8609684,0.924872 -0.708939,0.308292 -1.46732,0.542485 -2.12682,0.924873 -0.104276,0.06047 -0.333136,0.323176 -0.265853,0.231217 0.92377,-1.262523 1.566187,-2.78074 2.9243794,-3.69949 0.469242,-0.317418 1.070588,-0.450351 1.595115,-0.693655 6.762075,-3.136605 8.984072,-2.165541 16.217007,-1.618527 2.997418,0.226689 6.309006,0.09305 9.304839,0 1.936452,-0.06015 5.102346,-0.632387 7.17802,-0.231219 1.063181,0.205484 2.256893,0.698621 2.392674,0.462437 0.911515,-1.585531 1.093155,-3.648556 1.860967,-5.318019 2.042072,-4.440093 9.498883,-11.611362 13.824334,-14.335532 1.589082,-1.0008025 5.715593,-3.1566663 8.24143,-2.7746177 3.032728,0.4587187 4.860501,1.5377953 7.709726,2.312182 0.507922,0.1380486 4.494008,0.1868816 4.785349,0.6936547 0.08862,0.154146 -0.335369,0.207933 -0.531706,0.231218 -1.76486,0.20931 -3.548552,0.277864 -5.317056,0.462437 -1.810247,0.18893 -4.290628,1.076472 -5.848755,1.618528 -0.164559,0.05725 0.355838,0.01912 0.531704,0 1.952435,-0.21226 3.886128,-0.57173 5.848759,-0.693655 0.537671,-0.03341 1.112984,0.02155 1.595116,0.231218 0.0089,0.0038 3.750037,2.287744 3.190232,2.774619 -1.75901,1.529851 -4.956265,-0.462436 -7.443875,-0.462436 -0.730759,0 -1.433564,0.261455 -2.126821,0.462436 -0.271546,0.07872 -5.582905,1.918677 -5.582905,2.080964 0,0.878765 1.990089,0.359066 2.92438,0.693655 0.99572,0.35659 2.364779,1.229248 2.924377,2.080964 0.706487,1.075285 0.286161,0.717206 1.06341,1.618528 0.0752,0.08719 0.390612,0.220884 0.265852,0.231218 -1.942806,0.160924 -3.913203,0.01401 -5.848756,0.231218 -3.740118,0.419725 -5.820356,3.191771 -7.443872,5.780456 -0.432335,0.689358 -1.06341,1.242814 -1.06341,2.080964 0,0.108998 0.14255,-0.21172 0.265854,-0.231218 1.849539,-0.292471 3.733364,-0.401184 5.582903,-0.693655 1.078458,-0.170538 2.120194,-0.486846 3.19023,-0.693655 1.830912,-0.353863 3.344331,-0.325179 5.317051,-0.462436 2.670566,-0.185811 5.285988,-0.608637 7.975582,-0.462436 2.657952,0.14448 14.306455,2.902816 15.685295,3.930709 0.99868,0.744483 0.96705,1.838194 1.595122,2.774618 0.42124,0.628056 0.92326,1.214145 1.32927,1.849747 0.043,0.06737 0.0869,0.246332 0,0.231218 -1.871812,-0.32559 -3.524862,-1.278215 -5.317062,-1.849746 -3.817698,-1.21746 -7.864905,-2.080964 -11.963365,-2.080964 -2.528595,0 -4.974083,0.566867 -7.443874,0.924873 -1.861268,0.269799 -3.809272,0.282136 -5.582903,0.924872 -2.296328,0.832156 -4.346321,2.05763 -6.380462,3.237055 -0.610761,0.354129 0.113998,0.132073 -0.531705,0.693655 -0.49657,0.43188 -3.280887,1.311123 -3.987788,1.618528 -1.091027,0.474446 -0.505012,0.351376 -1.329262,0.924874 -1.904784,1.325307 -3.856856,2.198306 -5.582905,3.699491 z"
       id="path81" />
    <path
       style="fill:#ffb380;stroke:#000000;stroke-width:0.195144px;stroke-linecap:butt;stroke-linejoin:miter;stroke-opacity:1"
       d="m 136.94477,44.328114 c -0.1139,0.975226 -1.671,1.199905 -2.21767,1.852119 -1.60813,1.918655 -2.55753,4.244878 -3.88093,6.350121 -0.55678,0.885716 -1.36142,1.552291 -1.94046,2.381297 -0.39036,0.55887 -0.45866,1.282532 -0.83162,1.852118 -0.73588,1.123798 -1.59991,2.260382 -2.21767,3.439648 -0.26136,0.498913 -0.31259,1.079727 -0.55442,1.58753 -0.70043,1.470772 -1.61093,2.689071 -2.21768,4.233418 -1.36446,3.4729 -1.23374,6.98593 -1.94046,10.58354 -0.51045,2.59849 -0.83163,5.02858 -0.83163,7.67306 0,0.61738 0,1.23475 0,1.85213 0,0.26458 -0.19602,0.60666 0,0.79376 0.0654,0.0624 0.21187,-0.0624 0.27722,0 0.13067,0.12473 -0.0261,0.35455 0,0.52917 0.0795,0.53109 0.2772,1.05106 0.2772,1.58754 0,0.19721 -0.24325,0.33464 -0.2772,0.52917 -0.20481,1.17287 -0.24892,4.10388 0,5.29176 0.0811,0.38677 0.40932,0.68905 0.55441,1.05836 0.47099,1.19878 1.11195,3.44262 1.94046,4.233405 0.0654,0.0624 0.23588,-0.0789 0.27722,0 0.0827,0.15777 -0.0827,0.37141 0,0.52918 0.0413,0.0789 0.22966,-0.0756 0.2772,0 0.31891,0.50733 0.55442,1.05836 0.83163,1.58754 0.26718,0.51003 0.2687,1.27262 0.55442,1.85211 0.58092,1.17825 1.29843,2.29065 1.94046,3.43965 0.0972,0.17401 0.27721,0.33196 0.27721,0.52917 0,0.33115 -0.36727,-1.90929 -1.94046,-1.58753 -2.18048,0.44597 -4.21484,1.24377 -6.37581,1.58753 -1.77304,0.28206 0.20806,0.32411 -1.94046,0.52918 -2.52763,0.24126 -3.18319,-0.10035 -5.8214,0.52917 -0.34031,0.0812 -0.67241,-0.84559 -0.83162,-1.05835 -1.63611,-2.18626 -2.64751,-6.13904 -3.32651,-8.731415 -0.96344,-3.67827 -0.99461,-3.7428 -2.21766,-8.996 -0.33539,-1.44051 -0.74727,-2.76093 -0.55442,-4.23341 0.36188,-2.76332 1.28261,-5.44122 1.66325,-8.20224 0.25826,-4.19063 0.0785,-3.39731 0.55441,-6.35013 0.34848,-2.16196 1.13701,-4.21542 1.66326,-6.35012 0.23662,-0.959848 0.17074,-1.994934 0.55441,-2.91047 0.17159,-0.40944 0.60725,-0.672867 0.83163,-1.058353 0.82265,-1.413359 1.50841,-2.977995 2.49487,-4.233415 1.25089,-1.591902 2.95513,-2.857635 4.15815,-4.498003 0.99058,-1.350686 2.05677,-2.995938 2.77209,-4.498002 0.53144,-1.115942 0.96015,-3.297732 1.94046,-4.233415 1.03027,-0.98336 2.57064,-1.924437 3.60372,-2.910473 0.85128,-0.812523 1.94162,-3.175338 3.0493,-3.439649 1.94595,-0.464339 3.14996,1.106395 4.71255,1.852119 0.26135,0.124728 0.59785,0.09725 0.83162,0.264587 0.1653,0.118329 0.14494,0.377674 0.27721,0.529178 1.39495,1.597714 2.43653,2.376677 3.60372,4.233415 z"
       id="path48-7" />
    <path
       style="fill:#00ff00;stroke:#000000;stroke-width:0.178648px;stroke-linecap:butt;stroke-linejoin:miter;stroke-opacity:1"
       d="m 136.94477,44.328114 c 4.06974,2.56855 3.54808,5.68276 2.92437,9.47995 -0.0501,0.30519 0.0695,0.62256 0,0.92487 -0.0627,0.27249 -0.43066,0.43002 -0.5317,0.69366 -0.25899,0.67574 -0.22195,1.07971 -0.53171,1.61852 -0.11889,0.20681 0,0.46244 0,0.69366 0,0.0771 -0.0886,0.23121 0,0.23121 0.62439,0 1.95262,-1.00457 2.39268,-1.38731 0.0627,-0.0545 -0.0793,-0.19675 0,-0.23121 0.25342,-0.11021 1.91509,-0.55451 2.12682,-0.46244 0.67724,0.29451 1.15844,1.48672 1.32926,2.08096 0.54909,1.91023 0.71272,3.45842 0,5.31802 -0.33271,0.8681 -1.38139,1.38279 -1.59511,2.31219 -0.18149,0.78918 3.18251,-1.03713 3.45608,-1.1561 0.28578,-0.12427 0.57162,-0.65893 0.79756,-0.46243 0.20286,0.17643 -0.26471,1.15377 -0.26586,1.15609 -0.50797,1.03085 -1.41761,1.74637 -1.86097,2.77462 -0.28282,0.65594 -0.34205,1.2555 -0.79755,1.84975 -0.27944,0.36454 -0.85054,0.78581 -1.06341,1.15608 -0.11132,0.19364 2.14726,0.25156 2.92438,-0.23121 1.45249,-0.90234 2.48495,-2.16123 3.72193,-3.23706 0.40123,-0.34896 0.9809,-0.53532 1.32926,-0.92487 0.73869,-0.82601 1.42818,-2.89558 1.86097,-3.93071 0.3937,-0.94162 1.04986,-1.80259 1.32926,-2.77462 0.56953,-1.98131 0.45901,-4.47805 0,-6.47411 -0.47586,-2.06935 -6.35525,-6.50113 -8.24142,-8.32386 -0.17433,-0.16846 -2.35646,-2.76643 -1.86097,-3.00583 0.77852,-0.37617 1.76839,-0.20625 2.65852,-0.23122 5.38598,-0.15111 8.45467,-0.049 12.22922,3.46827 1.1272,1.05038 0.18717,1.03218 0.53171,2.08097 0.30504,0.92856 1.14415,1.66091 1.59511,2.5434 0.0706,0.13818 -0.16252,0.46243 0.26585,0.46243 0.0744,0 -0.26563,-1.61872 0,-1.84974 1.42502,-1.23937 5.22088,-0.77731 6.64632,0.46243 0.80982,0.70432 0.78828,2.15894 1.32926,3.00584 1.03534,1.20062 0.5994,0.58019 1.32926,1.84975 0.12533,0.21799 0.0152,0.80265 0.26586,0.69365 0.92333,-0.40152 0.67572,-3.83733 1.59511,-3.46827 1.31039,0.526 4.5255,2.28586 5.58291,3.46827 0.29298,0.32762 0.33788,0.77681 0.5317,1.15609 0.70235,1.37441 0.48983,0.47512 0.79756,2.08097 0.0146,0.076 -0.0203,0.30624 0,0.23121 1.58111,-5.84431 3.79169,-9.27333 -0.26585,-14.56674 -0.84042,-1.09641 -2.18954,-0.68009 -3.45609,-0.92488 -0.82068,-0.15861 -1.59917,-0.45211 -2.39267,-0.69365 -4.01408,-1.2219 -8.19618,-1.66695 -12.22922,-2.77462 -1.63204,-0.44824 -3.16168,-1.14782 -4.78534,-1.61853 -2.85348,-0.82724 -6.20874,-0.46243 -9.03899,-0.46243 -0.88618,0 -1.77496,-0.0591 -2.65853,0 -0.27941,0.0187 -0.92288,0.44921 -0.79755,0.23121 1.93544,-3.3666 10.46553,-4.31418 14.35603,-3.46827 1.3389,0.29112 2.55635,0.75373 3.72194,1.38731 0.27095,0.14728 0.51177,0.33816 0.79756,0.46244 0.0793,0.0345 0.26585,-0.0771 0.26585,0 0,0.0771 -0.18931,0.0388 -0.26585,0 -0.99804,-0.50635 -1.98994,-1.02747 -2.92438,-1.61853 -0.0717,-0.0453 -0.0886,-0.23122 0,-0.23122 0.12532,0 0.14149,0.2177 0.26585,0.23122 1.23107,0.13383 2.48129,0 3.72194,0 2.31318,0 4.94172,-0.64832 7.17802,0 1.14173,0.331 2.17413,1.61853 3.45608,1.61853 0.12532,0 -0.16886,-0.1622 -0.26585,-0.23122 -0.87833,-0.62502 -1.7802,-1.22473 -2.65853,-1.84975 -0.097,-0.069 -0.35447,-0.15414 -0.26585,-0.23122 0.0886,-0.0771 0.14096,0.22217 0.26585,0.23122 0.97143,0.0704 1.94959,0 2.92438,0 1.02303,0 3.03112,0.0232 3.98779,0.23122 0.69313,0.15071 1.22194,0.64698 1.86097,0.92487 0.70894,0.3083 1.46732,0.54249 2.12682,0.92488 0.10427,0.0605 0.33313,0.32317 0.26585,0.23121 -0.92377,-1.26252 -1.56619,-2.78074 -2.92438,-3.69949 -0.46924,-0.31741 -1.07059,-0.45035 -1.59511,-0.69365 -6.76208,-3.13661 -8.98408,-2.16554 -16.21701,-1.61853 -2.99742,0.22669 -6.30901,0.0931 -9.30484,0 -1.93645,-0.0601 -5.10235,-0.63239 -7.17802,-0.23122 -1.06318,0.20549 -2.25689,0.69862 -2.39267,0.46244 -0.91152,-1.58553 -1.09316,-3.64856 -1.86097,-5.31802 -2.04207,-4.44009 -9.49888,-11.61136 -13.82433,-14.33553 -1.58909,-1.0007998 -5.7156,-3.1566698 -8.24143,-2.7746198 -3.03273,0.45872 -4.86051,1.5378 -7.70973,2.31218 -0.50792,0.1380498 -4.49401,0.1868798 -4.78535,0.6936598 -0.0886,0.15414 0.33537,0.20793 0.53171,0.231221 1.76486,0.209309 3.54855,0.277859 5.31705,0.462429 1.81025,0.18893 4.29063,1.07647 5.84876,1.61853 0.16456,0.0573 -0.35584,0.0191 -0.53171,0 -1.95243,-0.21226 -3.88612,-0.57173 -5.84876,-0.69365 -0.53767,-0.0334 -1.11298,0.0215 -1.59511,0.231211 -0.009,0.004 -3.75004,2.287749 -3.19023,2.774619 1.75901,1.52985 4.95626,-0.46243 7.44387,-0.46243 0.73076,0 1.43357,0.26145 2.12682,0.46243 0.27155,0.0787 5.58291,1.91868 5.58291,2.08097 0,0.87876 -1.99009,0.35906 -2.92438,0.69365 -0.99572,0.35659 -2.36478,1.22925 -2.92438,2.08097 -0.70649,1.07528 -0.28616,0.7172 -1.06341,1.61852 -0.0752,0.0872 -0.39061,0.22089 -0.26585,0.23122 1.9428,0.16092 3.9132,0.014 5.84875,0.23122 3.74012,0.41972 5.82036,3.19177 7.44388,5.78046 0.43233,0.68935 1.06341,1.24281 1.06341,2.08096 0,0.109 -0.14255,-0.21172 -0.26586,-0.23122 -1.84954,-0.29247 -3.73336,-0.40118 -5.5829,-0.69365 -1.07846,-0.17054 -2.12019,-0.48685 -3.19023,-0.69366 -1.83091,-0.35386 -3.34433,-0.32518 -5.31705,-0.46243 -2.67057,-0.18582 -5.28599,-0.60864 -7.97558,-0.46244 -2.65796,0.14448 -14.306462,2.90282 -15.685302,3.93071 -0.99867,0.74448 -0.96705,1.83819 -1.59512,2.77462 -0.42124,0.62805 -0.92326,1.21414 -1.32927,1.84974 -0.043,0.0674 -0.0869,0.24634 0,0.23122 1.87181,-0.32559 3.52486,-1.27821 5.31706,-1.84975 3.8177,-1.21745 7.864912,-2.08096 11.963372,-2.08096 2.52859,0 4.97408,0.56687 7.44387,0.92487 1.86127,0.2698 3.80927,0.28214 5.5829,0.92488 2.29633,0.83215 4.34632,2.05763 6.38047,3.23705 0.61076,0.35413 -0.114,0.13207 0.5317,0.69366 0.49657,0.43188 3.28089,1.31112 3.98779,1.61852 1.09103,0.47445 0.50501,0.35138 1.32926,0.92488 1.90478,1.32531 3.85686,2.1983 5.58291,3.69949 z"
       id="path81-3" />
    <ellipse
       style="fill:#80e5ff;stroke-width:0.264583"
       id="path161"
       cx="95.837852"
       cy="75.27494"
       rx="18.359741"
       ry="44.797771" />
    <path
       style="fill:#ff9955;stroke:#000000;stroke-width:0.264583px;stroke-linecap:butt;stroke-linejoin:miter;stroke-opacity:1"
       d="m 15.789378,111.99441 c 4.226018,-2.27171 9.247416,-2.47798 13.586209,-4.40634 9.16091,-4.07151 19.299968,-6.79107 29.375584,-5.87511 1.050134,0.0955 7.88221,0.81995 8.445482,1.10158 3.922723,1.96136 -0.246071,0.9053 6.609508,3.30476 0.816896,0.28591 1.721683,0.19745 2.570364,0.36719 6.344639,1.26893 12.17333,2.43254 18.726933,1.46878 1.79987,-0.51425 6.203502,-1.88289 8.445482,-2.20317 8.06586,-1.15226 16.14512,-1.95698 24.23486,-2.93756 3.8959,-0.47223 13.72507,-2.57286 17.25816,-1.46878 1.6272,0.50851 3.23432,1.10302 4.77353,1.83598 1.93311,0.92053 3.61872,2.29718 5.50792,3.30475 2.26162,1.2062 3.20809,1.39145 5.14073,2.93756 3.38969,2.71175 -0.78199,0.24267 3.67195,3.30475 1.17623,0.80866 2.50258,1.38461 3.67195,2.20317 0.10027,0.0702 -0.0734,0.26928 0,0.3672 0.31157,0.41543 0.67902,0.79975 1.10158,1.10158 2.22836,1.59169 5.63546,3.14637 5.14073,6.60951 -0.22402,1.56813 -0.87013,6.86097 -2.57037,7.71109 -3.06969,1.53485 -5.41912,1.09172 -8.81267,1.46878 -2.77433,0.30826 -11.18713,1.87835 -12.85182,2.20317 -2.33256,0.45513 -4.65114,0.97918 -6.9767,1.46878 -3.30476,0.85679 -6.5692,1.88769 -9.91426,2.57036 -9.2324,1.88416 -19.65098,2.58608 -29.00839,1.46878 -12.505214,-1.49316 -24.611159,-5.26773 -37.086682,-6.9767 -4.754176,-0.65126 -9.532651,-1.14958 -14.320599,-1.46878 -6.787822,-0.45252 -11.737255,0.81887 -18.726935,-0.73439 -1.95969,-0.43549 -24.1422594,-6.04752 -24.6020524,-12.48462 -0.22942,-3.21188 3.0952194,-4.34099 5.1407274,-5.87512"
       id="path169" />
    <path
       style="fill:none;stroke:#000000;stroke-width:0.264583px;stroke-linecap:butt;stroke-linejoin:miter;stroke-opacity:1"
       d="m 120.8071,45.532158 c -0.058,3.307564 1.85024,-0.11289 2.57036,0.367194 1.64886,1.099235 3.34423,2.03931 5.14073,2.93756 0.56239,0.281194 0.28715,0.654346 0.73439,1.101585 0.1224,0.122399 0.97919,0.244795 1.10158,0.367194 0.19353,0.193529 0.17367,0.540861 0.3672,0.734391"
       id="path177" />
    <path
       style="fill:none;stroke:#000000;stroke-width:0.264583px;stroke-linecap:butt;stroke-linejoin:miter;stroke-opacity:1"
       d="m 113.8304,55.813612 c 2.14028,-0.02093 3.35506,0.784701 4.77353,2.203169 0.19353,0.19353 0.13947,0.582573 0.3672,0.734391 0.20368,0.13579 0.51543,-0.109476 0.73438,0 0.10948,0.05474 -0.0865,0.280646 0,0.367194 0.19353,0.19353 0.54087,0.173667 0.73439,0.367194 0.31206,0.312058 0.42234,0.78953 0.73439,1.101585 0.30783,0.30783 1.98397,0.710655 2.57037,1.101585"
       id="path179" />
    <path
       style="fill:none;stroke:#000000;stroke-width:0.264583px;stroke-linecap:butt;stroke-linejoin:miter;stroke-opacity:1"
       d="m 115.29918,72.337381 c 2.26922,-0.273479 3.39433,0.734388 5.50792,0.734388"
       id="path181" />
    <path
       style="fill:none;stroke:#000000;stroke-width:0.264583px;stroke-linecap:butt;stroke-linejoin:miter;stroke-opacity:1"
       d="m 116.03357,84.822004 c 2.03188,-0.484446 3.19482,-1.211511 4.77353,0.367194"
       id="path183" />
    <path
       style="fill:none;stroke:#000000;stroke-width:0.264583px;stroke-linecap:butt;stroke-linejoin:miter;stroke-opacity:1"
       d="m 113.4632,95.837849 c 5.23213,-2.326656 3.08669,-2.312201 6.24231,-0.73439"
       id="path185" />
    <path
       style="fill:none;stroke:#000000;stroke-width:0.264583px;stroke-linecap:butt;stroke-linejoin:miter;stroke-opacity:1"
       d="m 71.970187,95.103459 c 0.734388,-0.122399 1.468778,-0.244796 2.203166,-0.367194 0.734391,-0.122399 1.506054,-0.628613 2.20317,-0.367194 2.099217,0.787204 -0.707274,4.209182 3.304754,2.203166"
       id="path187" />
    <path
       style="fill:none;stroke:#000000;stroke-width:0.264583px;stroke-linecap:butt;stroke-linejoin:miter;stroke-opacity:1"
       d="m 70.134211,81.51725 c 0.856787,0.122399 1.713577,0.244798 2.570364,0.367197 0.489593,0.489593 0.811921,1.249825 1.468778,1.468779 0.928939,0.309644 1.958375,0 2.937561,0"
       id="path189" />
    <path
       style="fill:none;stroke:#000000;stroke-width:0.264583px;stroke-linecap:butt;stroke-linejoin:miter;stroke-opacity:1"
       d="m 59.48556,49.5713 c 4.04781,-3.048246 3.040872,-0.930899 7.343897,-1.468779 1.96995,-0.246242 3.132441,-1.749816 4.773533,-2.570363"
       id="path193" />
    <path
       style="fill:none;stroke:#000000;stroke-width:0.264583px;stroke-linecap:butt;stroke-linejoin:miter;stroke-opacity:1"
       d="m 63.524705,57.282393 c 3.83377,-0.608218 7.868462,-1.180269 11.383039,-2.93756 0.907487,-0.453742 -0.126749,-0.367194 0.734391,-0.367194"
       id="path195" />
    <path
       style="fill:none;stroke:#000000;stroke-width:0.264583px;stroke-linecap:butt;stroke-linejoin:miter;stroke-opacity:1"
       d="m 68.665432,65.360678 c 10.153195,-3.384396 -0.10509,-0.931122 4.406337,-0.367194 0.292018,0.0365 1.87036,-0.367194 2.570366,-0.367194"
       id="path197" />
    <path
       style="fill:#0000ff;stroke:#000000;stroke-width:0.264583px;stroke-linecap:butt;stroke-linejoin:miter;stroke-opacity:1"
       d="m -3.3047535,108.68966 c 4.6478261,-1.08293 5.9535801,-8.17989 11.0158444,-8.812667 1.453158,-0.18165 2.262736,0.0652 3.6719491,0.367187 1.889581,0.40491 3.241086,0.44715 4.773532,1.46878 1.976828,1.31789 2.83673,3.44634 5.140728,4.40634 2.194839,0.91452 8.386356,2.94761 9.547065,3.30475 6.312421,1.94229 13.250701,2.93756 19.82852,2.93756 2.693498,0 5.334333,-0.55012 8.078287,-0.36719 6.177561,0.41184 9.509847,3.82045 15.054988,5.14073 6.603401,1.57223 13.123751,0.11404 19.461326,-1.83598 2.52182,-0.77594 5.460331,-2.5409 8.078284,-2.93756 2.54424,-0.38549 5.13916,-0.28423 7.71109,-0.36719 7.11803,-0.22962 0.13766,-0.13242 8.81268,2.20317 1.42319,0.38316 2.95252,0.12489 4.40634,0.36719 13.83371,2.30562 -11.52601,0.25207 15.78938,2.20317 3.92355,0.28025 7.51848,0.0472 11.01584,-1.83597 0.53884,-0.29015 0.97919,-0.73439 1.46878,-1.10159 0.48959,-0.61199 0.79673,-1.43275 1.46878,-1.83597 0.63842,-0.38306 1.45865,-0.3672 2.20317,-0.3672 3.18471,0 6.36391,0.26772 9.54706,0.3672 0.73404,0.0229 1.49904,-0.20863 2.20317,0 2.63723,0.7814 5.12313,2.00589 7.71109,2.93756 0.47483,0.17093 0.97046,0.44692 1.46878,0.36719 1.11977,-0.17916 10.76288,-1.75709 12.85182,-3.67195 1.31223,-1.20287 4.9246,-11.33268 5.87512,-11.01584 4.04796,1.34932 1.88331,4.82087 4.40634,7.3439 0.97293,0.97293 2.6015,1.31113 3.67194,2.20316 3.80413,3.17011 8.5169,5.33216 12.11743,8.81268 3.57328,3.45417 7.29634,11.53025 8.81268,15.42218 2.34662,6.02298 4.4483,12.14971 6.24231,18.35974 4.4884,15.53677 5.47113,24.93262 -5.50792,37.82107 -2.9206,3.42853 -6.15653,6.69709 -9.91426,9.17987 -3.20504,2.11762 -7.0563,3.0456 -10.64865,4.40634 -15.48901,5.86705 -17.87016,6.34233 -36.71948,9.17987 -6.63325,0.99855 -24.23074,0.95405 -29.00839,0.73439 -4.6719,-0.2148 -9.28465,-1.19415 -13.95341,-1.46878 -71.435371,-4.20208 6.49591,3.13324 -52.508858,-5.87512 -8.391596,-1.28116 -16.919355,-1.46906 -25.336444,-2.57036 -20.581604,-2.69292 -43.6685973,-11.14943 -60.95434,-22.39889 -12.69488,-8.26174 -10.616669,-25.24349 -12.484624,-37.82106 -0.06146,-0.41386 -7.328963,-24.31875 -2.203169,-27.90681 7.041957,-4.92937 7.251633,-1.6982 14.687793,-2.93756 6.9097569,-1.15163 -0.110029,-0.0935 3.671948,-1.46878 3.2720012,-1.18982 5.4771725,-1.15657 8.4454805,-2.93756 z"
       id="path199" />
    <circle
       style="fill:#ffff00;stroke-width:0.264583"
       id="path201"
       cx="187.26935"
       cy="-0.36719581"
       r="30.477171" />
    <path
       style="fill:#ff55dd;stroke:#000000;stroke-width:0.264583px;stroke-linecap:butt;stroke-linejoin:miter;stroke-opacity:1"
       d="m 88.861147,58.383978 c -0.122399,0.611989 -0.455457,1.218134 -0.367194,1.835973 0.0565,0.395486 3.03867,2.09319 3.671948,2.937558 1.865408,2.487213 3.587307,5.282594 4.039147,8.445481 0.57092,3.996452 -0.99196,7.611049 -2.937562,11.015845 -0.60759,1.063281 -1.260142,2.052928 -1.468779,3.304754 -0.76059,4.563539 2.361782,7.836392 4.039141,11.750233 0.78668,1.835595 1.61766,4.178018 1.10159,6.242308 -0.13942,0.55765 -1.37376,2.76043 -1.10159,3.30476 1.08368,2.16736 6.793342,-0.40396 8.445482,-0.73439 0.36007,-0.072 0.77316,0.16421 1.10159,0 1.10969,-0.55485 2.95527,-1.93421 3.67195,-2.93756 1.2488,-1.74833 2.76648,-8.09747 1.46877,-9.91426 -1.22398,-1.713577 -1.22398,-0.979186 -2.20317,-2.20317 -2.03926,-2.549075 -4.36033,-5.874311 -4.77353,-9.179869 -0.86489,-6.919156 2.2383,-14.044078 -1.83597,-20.562911 -0.87141,-1.394259 -2.757482,-1.976311 -4.039152,-2.937558 -1.76673,-1.325052 -3.76531,-3.491489 -4.773529,-5.507924 -1.632228,-3.264455 0.459682,-8.139027 -3.304752,-10.648648 -1.360646,-0.907097 -2.326661,0.735208 -3.304754,1.468779 -1.827347,1.37051 -0.448511,11.444663 0.734391,13.219014 0.377126,0.565688 1.404948,0.886071 1.835973,1.101585 z"
       id="path203" />
  </g>
</svg>
